# AST/ASF file generated using VICON BodyLanguage
# -----------------------------------------------
:version 1.10
:name VICON
:units
  mass 1.0
  length 0.45
  angle deg
:documentation
   .ast/.asf automatically generated from VICON data using
   VICON BodyBuilder and BodyLanguage model FoxedUp or BRILLIANT.MOD
:root
   order TX TY TZ RX RY RZ
   axis XYZ
   position 0 0 0  
   orientation 0 0 0 
:bonedata
  begin
     id 1 
     name lhipjoint
     direction 0.543289 -0.788407 0.288535 
     length 2.57127 
     axis 0 0 0  XYZ
  end
  begin
     id 2 
     name lfemur
     direction 0.34202 -0.939693 0  
     length 8.47298  
     axis 0 0 20  XYZ
    dof rx ry rz
    limits (-160.0 20.0)
           (-70.0 70.0)
           (-60.0 70.0)
  end
  begin
     id 3 
     name ltibia
     direction 0.34202 -0.939693 0   
     length 8.13367   
     axis 0 0 20   XYZ
    dof rx
    limits (-10.0 170.0)
  end
  begin
     id 4 
     name lfoot
     direction 0.114037 -0.313314 0.942778   
     length 2.67113   
     axis -90 7.62852e-016 20   XYZ
    dof rx rz
    limits (-45.0 90.0)
           (-70.0 20.0)
  end
  begin
     id 5 
     name ltoes
     direction 1.536e-011 -4.21847e-011 1   
     length 1.32217   
     axis -90 7.62852e-016 20   XYZ
    dof rx
    limits (-90.0 20.0)
  end
  begin
     id 6 
     name rhipjoint
     direction -0.571293 -0.770752 0.282074   
     length 2.63017  
     axis 0 0 0  XYZ 
  end
  begin
     id 7 
     name rfemur
     direction -0.34202 -0.939693 0   
     length 8.60885   
     axis 0 0 -20   XYZ
    dof rx ry rz
    limits (-160.0 20.0)
           (-70.0 70.0)
           (-70.0 60.0)
  end
  begin
     id 8 
     name rtibia
     direction -0.34202 -0.939693 0   
     length 8.07673   
     axis 0 0 -20   XYZ
    dof rx
    limits (-10.0 170.0)
 end
 begin
     id 9 
     name rfoot
     direction -0.121336 -0.333368 0.934956   
     length 2.81602  
     axis -90 -7.62852e-016 -20   XYZ
    dof rx rz
    limits (-45.0 90.0)
           (-20.0 70.0)
  end
  begin
     id 10 
     name rtoes
     direction -1.53491e-011 -4.21808e-011 1   
     length 1.38905   
     axis -90 -7.62852e-016 -20   XYZ
    dof rx
    limits (-90.0 20.0)
  end
  begin
     id 11 
     name lowerback
     direction 0.0136776 0.999869 -0.00861835   
     length 2.14087   
     axis 0 0 0   XYZ
    dof rx ry rz
    limits (-20.0 45.0)
           (-30.0 30.0)
           (-30.0 30.0)
  end
  begin
     id 12 
     name upperback
     direction -0.00789158 0.999804 0.0181308   
     length 2.14151   
     axis 0 0 0   XYZ
    dof rx ry rz
    limits (-20.0 45.0)
           (-30.0 30.0)
           (-30.0 30.0)
  end
  begin
     id 13 
     name thorax
     direction -0.0135231 0.999666 0.0220247   
     length 2.13644   
     axis 0 0 0   XYZ
    dof rx ry rz
    limits (-20.0 45.0)
           (-30.0 30.0)
           (-30.0 30.0)
  end
  begin
     id 14 
     name lowerneck
     direction -0.0392259 0.997317 0.0618018   
     length 1.65045   
     axis 0 0 0   XYZ
    dof rx ry rz
    limits (-20.0 45.0)
           (-30.0 30.0)
           (-30.0 30.0)
  end
  begin
     id 15 
     name upperneck
     direction 0.0765547 0.994276 -0.0745319   
     length 1.66045   
     axis 0 0 0   XYZ
    dof rx ry rz
    limits (-20.0 45.0)
           (-30.0 30.0)
           (-30.0 30.0)
  end
  begin
     id 16
     name head
     direction 0.0241564 0.999031 -0.036785  
     length 1.66594  
     axis 0 0 0   XYZ
    dof rx ry rz
    limits (-20.0 45.0)
           (-30.0 30.0)
           (-30.0 30.0)
  end
  begin
     id 17 
     name lclavicle
     direction 0.967398 0.249018 0.0461573  
     length 3.75176  
     axis 0 0 0   XYZ
    dof ry rz
    limits (-20.0 10.0)
           (0.0 20.0)
  end
  begin
     id 18 
     name lhumerus
     direction 1 -4.48963e-011 -3.05005e-027   
     length 5.93342   
     axis 180 -30 -90   XYZ
    dof rx ry rz
    limits (-60.0 90.0)
           (-90.0 90.0)
           (-90.0 90.0)
  end
  begin
     id 19
     name lradius
     direction 1 -4.48957e-011 1.07006e-026   
     length 3.94763   
     axis 180 -30 -90   XYZ
    dof rx
    limits (-10.0 170.0)
  end
  begin
     id 20
     name lwrist
     direction 1 -4.48978e-011 1.92422e-026   
     length 1.97382   
     axis -1.18182e-014 90 90   XYZ
    dof ry
    limits (-180.0 0.0)
 end
  begin
     id 21 
     name lhand
     direction 1 -4.48931e-011 3.84844e-026   
     length 0.560187   
     axis -2.45563e-014 90 90   XYZ
    dof rx rz
    limits (-90.0 90.0)
           (-45.0 45.0)
  end
  begin
     id 22 
     name lfingers
     direction 1 -4.48952e-011 7.69687e-026   
     length 0.451637   
     axis -4.91126e-014 90 90   XYZ
    dof rx
    limits (0.0 90.0)
  end
  begin
     id 23
     name lthumb
     direction 0.707107 -6.34901e-011 0.707107   
     length 0.648463   
     axis -90 45 2.85299e-015   XYZ
    dof rx rz
    limits (-45.0 45.0)
           (-45.0 45.0)
  end
  begin
     id 24 
     name rclavicle
     direction -0.965946 0.258716 0.00371831   
     length 3.63667  
     axis 0 0 0   XYZ 
    dof ry rz
    limits (-10.0 20.0)
           (-20.0 0.0)
  end
  begin
     id 25 
     name rhumerus
     direction -1 -4.48966e-011 -1.78361e-028  
     length 6.28647   
     axis 180 30 90   XYZ
    dof rx ry rz
    limits (-90.0 60.0)
           (-90.0 90.0)
           (-90.0 90.0)
  end
  begin
     id 26 
     name rradius
     direction -1 -4.48961e-011 1.05248e-026   
     length 3.81645   
     axis 180 30 90   XYZ
    dof rx
    limits (-10.0 170.0)
  end
  begin
     id 27 
     name rwrist
     direction -1 -4.48979e-011 1.92422e-026   
     length 1.90822   
     axis -1.18182e-014 -90 -90   XYZ
    dof ry
    limits (-180.0 0.0)
  end
  begin
     id 28
     name rhand
     direction -1 -4.48937e-011 3.84844e-026   
     length 0.646185   
     axis -2.45563e-014 -90 -90   XYZ
    dof rx rz
    limits (-90.0 90.0)
           (-45.0 45.0)
  end
  begin
     id 29
     name rfingers
     direction -1 -4.48953e-011 7.69687e-026   
     length 0.520971   
     axis -4.91126e-014 -90 -90   XYZ
    dof rx
    limits (0.0 90.0)
  end
  begin
     id 30
     name rthumb
     direction -0.707107 -6.3494e-011 0.707107   
     length 0.748013   
     axis -90 -45 -2.85299e-015   XYZ
    dof rx rz
    limits (-45.0 45.0)
           (-45.0 45.0)
  end
:hierarchy
  begin
    root lhipjoint rhipjoint lowerback
    lhipjoint lfemur
    lfemur ltibia
    ltibia lfoot
    lfoot ltoes
    rhipjoint rfemur
    rfemur rtibia
    rtibia rfoot
    rfoot rtoes
    lowerback upperback
    upperback thorax
    thorax lowerneck lclavicle rclavicle
    lowerneck upperneck
    upperneck head
    lclavicle lhumerus
    lhumerus lradius
    lradius lwrist
    lwrist lhand lthumb
    lhand lfingers
    rclavicle rhumerus
    rhumerus rradius
    rradius rwrist
    rwrist rhand rthumb
    rhand rfingers
  end

#!OML:ASF H:\HAZMAT1\Patient Classification 1\Patient 3\Session 1\dancer.ASF
:FULLY-SPECIFIED
:DEGREES
61
upperback -3.985910 -10.716600 -1.084570
rfoot -19.035400 -26.772301
lradius 129.492004
lthumb -28.620701 64.257004
rradius 20.761900
lwrist -39.301899
rhand -33.360802 -40.469002
rhumerus -74.269699 -18.308800 -41.543598
lowerneck -11.874600 0.626705 1.668440
lhand -56.297699 36.428600
ltibia 39.833199
head 10.110500 0.562993 1.854900
rwrist 19.259899
lfingers 7.125020
rtoes 15.407400
lowerback -5.974270 -7.932950 5.147960
rfingers 7.125020
lclavicle 0.000000 0.000000
upperneck 25.496700 -0.925403 6.329400
rfemur -35.452202 -7.871280 27.535299
thorax -1.983810 -5.473650 -4.280960
rclavicle 0.000000 0.000000
rtibia 53.533401
lfoot -35.263599 5.538360
lhumerus -13.088400 -45.862099 84.775002
rthumb -6.562560 -70.347397
root -6.316220 17.647900 4.185010 338.542999 62.175900 -22.181601
ltoes -12.371600
lfemur 13.492300 -13.913600 -8.882880
62
upperback -3.783800 -9.908840 -1.250120
rfoot -27.986099 -19.988800
lradius 132.343002
lthumb -27.738300 64.338898
rradius 22.552500
lwrist -34.565498
rhand -33.186199 -40.114201
rhumerus -73.486198 -18.339100 -42.206402
lowerneck -10.463600 2.838000 3.386130
lhand -55.374500 36.365101
ltibia 73.569298
head 10.177800 2.051720 1.949320
rwrist 17.912100
lfingers 7.125020
rtoes 12.751500
lowerback -5.246930 -7.323890 5.618020
rfingers 7.125020
lclavicle -0.000000 -0.000000
upperneck 26.560801 1.856180 6.467890
rfemur -26.077600 -8.590630 34.661098
thorax -2.193390 -5.090020 -4.607850
rclavicle -0.000000 -0.000000
rtibia 58.598099
lfoot -1.475610 3.702810
lhumerus 9.523990 -36.595402 66.797798
rthumb -6.393960 -69.997704
root -4.834700 17.418699 6.846480 338.631012 53.381802 -19.786200
ltoes 2.984680
lfemur -1.488970 -8.256070 -0.962024
63
upperback -3.163440 -8.205990 -1.459670
rfoot -38.113300 -17.606100
lradius 133.041000
lthumb -27.416700 64.418800
rradius 25.010201
lwrist -30.654499
rhand -34.405800 -39.614799
rhumerus -70.472702 -18.427099 -46.350601
lowerneck -8.825650 3.672900 4.493980
lhand -55.038200 36.393700
ltibia 81.669800
head 9.372240 2.612130 1.397970
rwrist 18.995701
lfingers 7.125020
rtoes 9.949600
lowerback -4.526720 -6.056850 5.067250
rfingers 7.125020
lclavicle 0.000000 0.000000
upperneck 25.130699 3.287510 5.206590
rfemur -21.507799 -6.957230 34.771599
thorax -1.681950 -4.211140 -4.495080
rclavicle 0.000000 0.000000
rtibia 63.606899
lfoot -20.263000 8.107150
lhumerus 21.017599 -24.720699 61.058300
rthumb -7.571310 -69.459297
root -3.476020 17.020000 8.741410 345.252991 47.582401 -14.222000
ltoes -0.145194
lfemur -34.765400 -6.423010 -1.886210
64
upperback -2.739110 -6.983500 -0.964013
rfoot -41.185799 -18.090000
lradius 125.866997
lthumb -24.924400 65.358902
rradius 22.235600
lwrist -22.999701
rhand -34.620800 -40.204498
rhumerus -72.732803 -18.368601 -42.380001
lowerneck -7.860990 4.115660 4.852250
lhand -52.434898 36.964199
ltibia 53.088501
head 9.891540 2.988450 0.998629
rwrist 19.326799
lfingers 7.125020
rtoes 7.773610
lowerback -5.287130 -5.027380 7.176300
rfingers 7.125020
lclavicle 0.000000 0.000000
upperneck 27.001699 4.242640 3.857770
rfemur -11.763800 -3.764170 35.871399
thorax -0.875360 -3.595880 -5.244840
rclavicle 0.000000 0.000000
rtibia 54.936298
lfoot -7.424930 12.291700
lhumerus 29.421700 -11.510600 59.513000
rthumb -7.778800 -70.041397
root -1.957970 17.300501 10.395600 348.440002 44.444599 -14.226800
ltoes 9.041760
lfemur -47.286400 -10.507400 1.914760
65
upperback -3.370790 -5.807090 -0.410002
rfoot -38.355202 -17.837900
lradius 109.348000
lthumb -20.112499 63.436699
rradius 21.936399
lwrist -14.252900
rhand -34.278198 -39.897400
rhumerus -72.379997 -16.688400 -41.303101
lowerneck -7.408630 4.902970 5.206130
lhand -47.421501 34.457802
ltibia 38.998798
head 10.116600 3.536100 0.720887
rwrist 19.431900
lfingers 7.125020
rtoes 1.102670
lowerback -6.688390 -3.996010 9.197580
rfingers 7.125020
lclavicle -0.000000 -0.000000
upperneck 27.717199 5.598560 2.795000
rfemur -1.588590 1.895760 34.833000
thorax -0.746457 -3.043290 -5.861100
rclavicle -0.000000 -0.000000
rtibia 39.019901
lfoot -22.073700 26.597401
lhumerus 41.049900 0.790487 55.885502
rthumb -7.448130 -69.746300
root 0.014699 17.736500 11.867500 354.872986 39.980801 -14.154700
ltoes 15.706200
lfemur -51.803799 -28.402599 16.640699
66
upperback -4.018830 -4.859970 -0.739483
rfoot -20.932400 -14.233000
lradius 78.675697
lthumb -9.862520 60.970100
rradius 21.335100
lwrist 1.144870
rhand -32.965401 -39.896999
rhumerus -72.903999 -15.446000 -41.942402
lowerneck -7.987940 5.549090 6.147540
lhand -36.780102 31.221001
ltibia 38.402302
head 9.655360 3.877230 0.544476
rwrist 18.856300
lfingers 7.125020
rtoes -23.000401
lowerback -6.048930 -3.393360 7.930400
rfingers 7.125020
lclavicle 0.000000 0.000000
upperneck 25.968901 6.310650 2.585590
rfemur 4.639570 10.111600 29.133301
thorax -1.532040 -2.609810 -5.399230
rclavicle 0.000000 0.000000
rtibia 26.094801
lfoot -23.724600 29.578300
lhumerus 52.929798 6.157850 59.390301
rthumb -6.180800 -69.786797
root 2.738940 18.534500 13.340000 363.878998 37.577099 -12.813100
ltoes 20.059099
lfemur -50.194901 -29.347900 13.363800
67
upperback -4.069300 -4.018820 -0.986458
rfoot 2.808300 -14.788200
lradius 46.820099
lthumb -2.985410 65.546600
rradius 20.419001
lwrist 13.479400
rhand -31.837500 -36.884701
rhumerus -73.222801 -12.382800 -44.580799
lowerneck -8.351650 7.311960 7.990730
lhand -29.656200 35.587799
ltibia 37.346401
head 8.065370 4.850860 0.453947
rwrist 21.313601
lfingers 7.125020
rtoes -1.870020
lowerback -4.845280 -2.841760 7.176660
rfingers 7.125020
lclavicle 0.000000 0.000000
upperneck 20.806200 8.302140 2.922020
rfemur -3.493030 4.134100 22.539900
thorax -2.083900 -2.204780 -5.142190
rclavicle 0.000000 0.000000
rtibia 26.341499
lfoot -31.567699 29.459000
lhumerus 59.252399 11.257000 59.771801
rthumb -5.091830 -66.803497
root 5.365340 19.254200 14.550500 374.183990 32.129799 -15.769500
ltoes 29.561501
lfemur -50.950199 -26.789900 13.704000
68
upperback -3.594270 -3.381510 -0.346259
rfoot 18.082701 -21.283800
lradius 27.040501
lthumb 0.898893 66.964699
rradius 17.919600
lwrist 11.660600
rhand -28.011999 -38.453400
rhumerus -77.409302 -10.436600 -37.606899
lowerneck -8.578900 7.919530 8.205000
lhand -25.634399 36.986900
ltibia 34.007500
head 5.571510 5.100860 0.728142
rwrist 21.205900
lfingers 7.125020
rtoes 12.650200
lowerback -3.592170 -2.393070 8.848600
rfingers 7.125020
lclavicle 0.000000 0.000000
upperneck 13.118800 9.011960 4.345640
rfemur 3.260710 5.941150 17.580200
thorax -2.269450 -1.913730 -5.353600
rclavicle 0.000000 0.000000
rtibia 16.545000
lfoot -54.908401 41.825600
lhumerus 62.452499 14.530600 67.750999
rthumb -1.397520 -68.428596
root 6.939880 19.674000 15.259500 382.479004 31.903400 -23.004299
ltoes 35.527500
lfemur -62.585999 -35.093300 33.770802
69
upperback -2.842670 -2.907850 1.010520
rfoot 30.176800 -30.243799
lradius 15.554000
lthumb 3.687490 68.545998
rradius 18.496500
lwrist 2.655980
rhand -26.827000 -35.783199
rhumerus -74.885399 -6.889610 -45.043800
lowerneck -9.094560 9.208670 4.728550
lhand -22.746901 38.598202
ltibia 27.250000
head 3.723480 6.046170 2.106800
rwrist 19.354500
lfingers 7.125020
rtoes 22.131701
lowerback -2.726700 -2.079600 8.792990
rfingers 7.125020
lclavicle 0.000000 -0.000000
upperneck 6.838460 11.278500 6.737020
rfemur 13.884100 10.572400 13.947300
thorax -1.811690 -1.616370 -3.892800
rclavicle 0.000000 -0.000000
rtibia -0.000000
lfoot -75.362503 39.035900
lhumerus 58.370201 22.717300 79.268799
rthumb -0.253042 -65.762802
root 7.773940 19.893200 15.522700 391.717987 30.665100 -31.535601
ltoes 40.478600
lfemur -70.398102 -34.430099 59.615799
70
upperback -1.299920 -0.984671 0.548310
rfoot 31.424500 -35.986698
lradius 13.096800
lthumb 5.585170 71.760201
rradius 16.744499
lwrist -7.517170
rhand -25.255600 -35.094501
rhumerus -80.252602 -7.635290 -48.719898
lowerneck -8.181470 8.961070 4.540740
lhand -20.781700 41.853802
ltibia 21.739901
head 1.877360 5.985040 1.690310
rwrist 20.700300
lfingers 7.125020
rtoes 23.928101
lowerback -1.964550 -0.633148 8.991480
rfingers 7.125020
lclavicle 0.000000 -0.000000
upperneck 1.933920 11.447600 6.248620
rfemur 13.761900 15.273800 12.416600
thorax -0.389389 -0.551627 -4.487450
rclavicle 0.000000 -0.000000
rtibia -0.000000
lfoot -97.209602 35.754002
lhumerus 52.271702 30.718599 94.361298
rthumb 1.264700 -65.070396
root 8.024920 19.811300 15.574700 400.967010 32.582699 -39.740898
ltoes 44.714401
lfemur -73.794403 -29.384399 83.974701
71
upperback 1.445910 -0.085435 -0.615438
rfoot 33.176899 -36.571400
lradius 12.052600
lthumb 5.243220 72.324402
rradius 14.447300
lwrist -13.868400
rhand -15.198100 -32.662899
rhumerus -74.467903 -10.498300 -64.078499
lowerneck -6.023960 8.118540 5.330430
lhand -21.135799 42.409199
ltibia 18.767099
head 0.673782 5.406940 0.166809
rwrist 19.777500
lfingers 7.125020
rtoes 26.594500
lowerback 0.497307 -0.056771 6.767410
rfingers 7.125020
lclavicle 0.000000 0.000000
upperneck -1.440920 10.647100 2.499140
rfemur 12.129400 15.858800 8.941850
thorax 1.205230 0.038212 -4.434830
rclavicle 0.000000 0.000000
rtibia 0.000000
lfoot -94.853500 43.127701
lhumerus 46.540798 41.298901 110.414001
rthumb 10.973700 -62.356098
root 8.023830 19.622200 15.430500 410.427002 35.174999 -41.327301
ltoes 43.084702
lfemur -70.669403 -376.868011 85.403801
72
upperback 3.915990 -2.127540 2.033600
rfoot 41.168999 -19.210501
lradius 10.714800
lthumb 3.360570 76.495201
rradius 9.816510
lwrist -21.454399
rhand -4.597750 -32.168598
rhumerus -41.227901 15.552600 -89.099998
lowerneck -5.343150 6.594100 -2.299140
lhand -23.085501 46.542000
ltibia 21.566099
head 0.521164 4.554600 1.205430
rwrist 17.986099
lfingers 7.125020
rtoes 25.395599
lowerback 2.897350 -1.619010 3.021030
rfingers 7.125020
lclavicle 0.000000 0.000000
upperneck -0.502079 8.993060 2.147230
rfemur 6.275490 11.945100 12.183500
thorax 2.370330 -1.004890 0.416362
rclavicle 0.000000 0.000000
rtibia 0.000000
lfoot -75.475098 52.305000
lhumerus 46.845699 45.292301 123.818001
rthumb 21.179899 -61.031601
root 8.074020 19.500700 15.206600 413.894989 38.807899 -34.300098
ltoes 39.910900
lfemur -78.630096 -371.760986 78.787598
73
upperback 3.879890 4.454410 -1.952840
rfoot 31.642799 -2.592520
lradius 8.652570
lthumb 5.420990 84.545097
rradius 15.610300
lwrist -12.968900
rhand -6.935130 -30.404900
rhumerus 34.667400 33.824600 -65.535301
lowerneck 2.545760 0.226780 4.753100
lhand -20.951700 54.634499
ltibia 34.739101
head 2.828370 0.360298 -0.100581
rwrist 8.146430
lfingers 7.125020
rtoes 25.007601
lowerback 0.503135 3.321260 1.083020
rfingers 7.125020
lclavicle 0.000000 -0.000000
upperneck 10.251800 0.202536 2.198500
rfemur -16.900299 6.916630 25.482800
thorax 3.955810 2.284400 -2.479630
rclavicle 0.000000 -0.000000
rtibia 28.816601
lfoot -29.674200 40.138901
lhumerus 58.088501 10.078200 112.554001
rthumb 18.933201 -59.503399
root 7.618810 19.328699 15.156000 403.940002 37.876801 -24.023701
ltoes 25.386999
lfemur -82.380501 -377.270996 45.979000
